<?xml version="1.0" encoding="utf-8"?>
<!-- Generator: Adobe Illustrator 16.0.0, SVG Export Plug-In . SVG Version: 6.00 Build 0)  -->
<!DOCTYPE svg PUBLIC "-//W3C//DTD SVG 1.1//EN" "http://www.w3.org/Graphics/SVG/1.1/DTD/svg11.dtd">
<svg version="1.1" id="Layer_1" xmlns="http://www.w3.org/2000/svg" xmlns:xlink="http://www.w3.org/1999/xlink" x="0px" y="0px"
	 width="163px" height="197px" viewBox="0 0 163 197" enable-background="new 0 0 163 197" xml:space="preserve">
<path fill-rule="evenodd" clip-rule="evenodd" fill="#FFFFFF" d="M90.695,165.846c-12.205-1.315-24.778-8.244-36.332-17.054
	c-20.631-15.727-37.691-34.396-46.267-59.534c-4.569-13.392-2.332-20.585,8.667-29.058c5.419-4.174,10.961-4.069,16.076,0.473
	c3.381,3.002,5.96,6.66,8.352,10.503c3.947,6.343,3.755,12.26-2.064,17.096c-5.662,4.706-5.137,9.423-1.323,14.763
	c8.729,12.224,19.119,22.758,31.464,31.352c5.169,3.599,9.706,4.002,14.258-1.3c3.818-4.446,8.815-6.581,14.569-3.517
	c7.529,4.017,15.682,7.961,16.72,17.7C115.679,155.349,102.7,166.148,90.695,165.846z"/>
<path fill-rule="evenodd" clip-rule="evenodd" fill="#FFFFFF" d="M123.355,150.186c-3.128-7.172-0.724-11.349,4.951-15.657
	c8.646-6.562,13.742-16.007,17.168-26.354c1.979-5.98,2.595-11.04-4.719-13.685c-1.285-0.466-2.367-1.498-3.411-2.18
	c-0.024-1.697,1.113-2.225,2.076-2.857c8.813-5.801,9.087-6.441,5.47-16.246c-6.918-18.76-19.925-31.106-39.01-37.247
	c-6.079-1.955-10.502-1.341-12.948,5.195c-0.483,1.283-1.479,2.373-2.179,3.456c-1.621-0.2-2.114-1.291-2.748-2.252
	c-5.954-9.056-5.964-9.072-16.273-5.465c-10.278,3.598-18.894,9.613-26.011,17.85c-1.557,1.801-2.278,5.82-6.216,2.173
	c-3.208-2.97-4.519-4.921-1.102-9.055c28.642-34.666,85.127-30.775,108.953,7.695c19.837,32.032,10.226,74.265-21.245,93.299
	C125.326,149.328,124.455,149.658,123.355,150.186z"/>
<g>
	<path fill="#FFFFFF" d="M60.92,108.037v-5.189l4.739-4.288c8.01-7.164,11.903-11.282,12.016-15.569c0-2.99-1.805-5.359-6.036-5.359
		c-3.159,0-5.923,1.58-7.841,3.046l-2.425-6.149c2.764-2.087,7.051-3.779,12.016-3.779c8.292,0,12.862,4.852,12.862,11.508
		c0,6.149-4.457,11.057-9.759,15.795l-3.385,2.821v0.112h13.821v7.052H60.92z"/>
	<path fill="#FFFFFF" d="M107.405,108.037v-8.744H91.159v-5.584l13.877-22.339h10.492v21.493h4.4v6.431h-4.4v8.744H107.405z
		 M107.405,92.862v-8.123c0-2.2,0.113-4.457,0.282-6.826h-0.226c-1.185,2.37-2.144,4.513-3.385,6.826l-4.908,8.01v0.113H107.405z"/>
</g>
</svg>
