<?xml version="1.0" encoding="utf-8"?>
<!-- Generator: Adobe Illustrator 16.0.0, SVG Export Plug-In . SVG Version: 6.00 Build 0)  -->
<!DOCTYPE svg PUBLIC "-//W3C//DTD SVG 1.1//EN" "http://www.w3.org/Graphics/SVG/1.1/DTD/svg11.dtd">
<svg version="1.1" id="Layer_1" xmlns="http://www.w3.org/2000/svg" xmlns:xlink="http://www.w3.org/1999/xlink" x="0px" y="0px"
	 width="163px" height="197px" viewBox="0 0 163 197" enable-background="new 0 0 163 197" xml:space="preserve">
<g>
	<path fill-rule="evenodd" clip-rule="evenodd" fill="#FFFFFF" d="M93.473,115.418c-10.583-1.457-15.348,1.197-18.72,10.941
		c-0.685,1.977-1.66,2.102-3.217,2.098c-7.328-0.016-14.656-0.029-21.984,0.01c-1.636,0.008-2.436-0.303-3.102-2.195
		c-4.418-12.555-14.759-15.053-25.779-5.84c0-8.994-0.233-17.563,0.096-26.109c0.172-4.459,3.619-6.333,7.684-5.953
		c4.416,0.413,5.186-1.364,5.03-5.328c-0.313-7.981-0.125-15.984-0.084-23.979c0.031-6.243,1.492-7.705,7.578-7.726
		c5.662-0.019,11.327,0.094,16.986-0.04c3.382-0.079,6.016,1.279,7.42,4.123c9.845,19.933,20.281,39.576,29.358,59.884
		C94.355,115.76,93.934,115.799,93.473,115.418z"/>
	<path fill-rule="evenodd" clip-rule="evenodd" fill="#FFFFFF" d="M93.473,115.418c0.424-0.037,0.846-0.076,1.268-0.113
		c1.858-1.385,0.986-3.381,0.994-5.078c0.071-16.282,0.051-32.564,0.034-48.845c-0.003-2.323-0.536-4.555,3.285-4.483
		c3.835,0.071,2.703,2.554,2.704,4.41c0.02,20.269-0.035,40.536-0.069,60.803l0.129-0.145
		C98.854,120.016,96.879,116.805,93.473,115.418z"/>
	<path fill-rule="evenodd" clip-rule="evenodd" fill="#FFFFFF" d="M43.856,129.402c0.042,6.578-5.156,11.91-11.492,11.793
		c-6.143-0.113-11.195-5.35-11.237-11.646c-0.043-6.459,5.314-11.92,11.587-11.813C38.872,117.844,43.815,123.02,43.856,129.402z"/>
	<path fill-rule="evenodd" clip-rule="evenodd" fill="#FFFFFF" d="M99.991,129.412c0.018,6.559-5.222,11.902-11.55,11.781
		c-6.182-0.117-11.148-5.297-11.168-11.65c-0.021-6.564,5.234-11.941,11.539-11.805C94.959,117.869,99.974,123.107,99.991,129.412z"
		/>
	<path fill-rule="evenodd" clip-rule="evenodd" fill="#FFFFFF" d="M108.024,63.46c10.49,0,20.98,0,32.994,0
		c-6.201,3.967-11.169,7.126-16.112,10.322c-0.969,0.626-1.77,0.574-2.732-0.045c-4.848-3.116-9.729-6.18-14.599-9.262
		C107.725,64.137,107.875,63.799,108.024,63.46z"/>
	<path fill-rule="evenodd" clip-rule="evenodd" fill="#FFFFFF" d="M107.845,93.463c10.554,0,21.106,0,33.063,0
		c-6.135,3.917-11.117,7.078-16.074,10.281c-0.996,0.643-1.792,0.473-2.728-0.129c-4.829-3.104-9.688-6.16-14.537-9.233
		C107.661,94.077,107.753,93.77,107.845,93.463z"/>
	<path fill-rule="evenodd" clip-rule="evenodd" fill="#FFFFFF" d="M106.623,119.154c5.939-3.793,10.779-6.811,15.533-9.957
		c1.49-0.986,2.443-0.178,3.547,0.525c4.596,2.926,9.193,5.846,14.833,9.432C128.953,119.154,118.492,119.154,106.623,119.154z"/>
	<path fill-rule="evenodd" clip-rule="evenodd" fill="#FFFFFF" d="M106.955,89.118c1.854-1.258,2.793-1.927,3.764-2.549
		c14.35-9.188,15.084-9.124,28.723,2.549C128.827,89.118,118.36,89.118,106.955,89.118z"/>
	<path fill-rule="evenodd" clip-rule="evenodd" fill="#FFFFFF" d="M126.617,76.549c5.046-3.224,9.508-6.028,13.918-8.91
		c2.098-1.37,2.971-0.815,2.965,1.598c-0.014,4.808-0.018,9.615,0,14.422c0.01,2.895-1.12,2.983-3.275,1.557
		C135.95,82.386,131.582,79.699,126.617,76.549z"/>
	<path fill-rule="evenodd" clip-rule="evenodd" fill="#FFFFFF" d="M126.613,106.457c5.215-3.324,9.799-6.217,14.35-9.161
		c1.729-1.117,2.475-0.413,2.495,1.329c0.062,5.13,0.093,10.263,0.005,15.392c-0.049,2.924-1.592,2.166-3.204,1.129
		C135.953,112.375,131.624,109.643,126.613,106.457z"/>
	<path fill-rule="evenodd" clip-rule="evenodd" fill="#FFFFFF" d="M101.688,122.111c8.425,0.887,16.874,0.225,25.31,0.342
		c2.453,0.035,3.947,0.129,3.936,3.336c-0.012,3.41-2.089,2.658-3.936,2.666c-6.133,0.027-12.293-0.352-18.389,0.121
		c-5.264,0.408-7.085-1.762-6.795-6.602C101.817,121.967,101.688,122.111,101.688,122.111z"/>
	<path fill-rule="evenodd" clip-rule="evenodd" fill="#FFFFFF" d="M104.817,86.4c0-6.797,0-12.837,0-19.802
		c5.437,3.439,10.361,6.554,15.725,9.946C115.049,79.987,110.193,83.03,104.817,86.4z"/>
	<path fill-rule="evenodd" clip-rule="evenodd" fill="#FFFFFF" d="M104.816,96.52c5.484,3.468,10.205,6.457,15.641,9.894
		c-5.348,3.418-10.203,6.521-15.641,9.996C104.816,109.516,104.816,103.492,104.816,96.52z"/>
	<path fill-rule="evenodd" clip-rule="evenodd" fill="#4D74A3" d="M42.515,80.3c0-5.332,0.138-10.67-0.055-15.995
		c-0.106-2.945,0.683-4.022,3.863-4.074c12.606-0.202,12.613-0.325,18.19,10.767c4.183,8.32,8.267,16.691,12.542,24.964
		c1.693,3.275,1.061,4.449-2.698,4.394c-9.329-0.133-18.664-0.158-27.992,0.02c-3.168,0.061-4.008-1.119-3.903-4.08
		C42.65,90.969,42.515,85.632,42.515,80.3z"/>
	<path fill-rule="evenodd" clip-rule="evenodd" fill="#4D74A3" d="M32.289,135.332c-3.351-0.535-5.451-2.492-5.416-5.924
		c0.035-3.436,2.176-5.5,5.6-5.76c3.133-0.238,6.087,2.941,5.735,6.131C37.834,133.164,35.856,135.104,32.289,135.332z"/>
	<path fill-rule="evenodd" clip-rule="evenodd" fill="#4D74A3" d="M88.902,123.605c3.164,0.43,5.361,2.395,5.393,5.773
		c0.031,3.328-1.922,5.604-5.449,5.885c-3.174,0.254-6.053-2.729-5.965-5.951C82.962,126.307,85.711,123.588,88.902,123.605z"/>
</g>
</svg>
