<?xml version="1.0" encoding="utf-8"?>
<!-- Generator: Adobe Illustrator 16.0.0, SVG Export Plug-In . SVG Version: 6.00 Build 0)  -->
<!DOCTYPE svg PUBLIC "-//W3C//DTD SVG 1.1//EN" "http://www.w3.org/Graphics/SVG/1.1/DTD/svg11.dtd">
<svg version="1.1" id="Layer_1" xmlns="http://www.w3.org/2000/svg" xmlns:xlink="http://www.w3.org/1999/xlink" x="0px" y="0px"
	 width="163px" height="197px" viewBox="0 0 163 197" enable-background="new 0 0 163 197" xml:space="preserve">
<path fill-rule="evenodd" clip-rule="evenodd" fill="#FFFFFF" d="M81.19,153.09c-23.203,0-46.405,0.066-69.605-0.096
	c-2.517-0.018-5.487-0.744-7.428-2.222c-3.014-2.292-3.704-4.693-0.69-8.814c7.117-9.733,13.621-18.532,13.429-19.105
	c0,0-0.814-51.92-0.784-69.896c0.014-8.051,1.876-9.898,10.056-9.903c36.998-0.021,73.996-0.024,110.993,0.003
	c8.053,0.005,9.879,1.89,9.888,10.069c0.024,21.948,0.187,43.898-0.115,65.843c-0.03,2.153-0.331,2.031,0.108,3.885
	c0.707,2.982,9.774,15.021,11.433,17.871c1.329,2.286,3.03,6.071,2.06,7.583c-1.488,2.318-5.08,4.461-7.864,4.572
	c-12.104,0.487-24.239,0.211-36.362,0.211C104.602,153.09,92.896,153.09,81.19,153.09z M81.697,48.827
	c-16.311,0-32.624,0.127-48.932-0.069c-5.784-0.069-8.406,1.942-8.344,8.009c0.197,18.818,0.187,37.641,0.004,56.458
	c-0.057,5.846,2.138,8.332,8.104,8.309c32.622-0.13,65.244-0.127,97.865-0.001c5.775,0.023,8.411-2.035,8.353-8.063
	c-0.179-18.818-0.18-37.641,0.003-56.459c0.057-5.859-2.145-8.328-8.122-8.253C114.319,48.961,98.008,48.827,81.697,48.827z
	 M58.541,144.207c15.588,0,30.704,0,45.82,0c0.236-0.627,0.475-1.254,0.711-1.881c-2.474-1.052-4.953-3.027-7.421-3.016
	C57.556,139.515,61.544,137.408,58.541,144.207z M94.388,149.809c-0.006-0.417-0.013-0.835-0.019-1.252c-8.509,0-17.018,0-25.526,0
	c0.005,0.417,0.011,0.835,0.017,1.252C77.369,149.809,85.878,149.809,94.388,149.809z"/>
<path fill-rule="evenodd" clip-rule="evenodd" fill="#FFFFFF" d="M59.818,77.541c0-2.153,0-3.776,0-5.93c21.544,0,43.061,0,65.067,0
	c0,1.843,0,3.731,0,5.93C103.237,77.541,81.868,77.541,59.818,77.541z"/>
<path fill-rule="evenodd" clip-rule="evenodd" fill="#FFFFFF" d="M113.816,91.124c-18.279,0-35.761,0-53.823,0
	c-0.135-2.042-0.263-3.986-0.418-6.336c18.162,0,35.822,0,53.896,0C113.581,86.803,113.679,88.594,113.816,91.124z"/>
<path fill-rule="evenodd" clip-rule="evenodd" fill="#FFFFFF" d="M59.856,104.332c0-2.127,0-3.929,0-6.063
	c10.308,0,20.375,0,30.811,0c0.093,2.006,0.173,3.78,0.277,6.063C80.587,104.332,70.558,104.332,59.856,104.332z"/>
<path fill-rule="evenodd" clip-rule="evenodd" fill="#FFFFFF" d="M50.161,73.431c-3.342,1.769-6.684,3.539-10.025,5.309
	c-0.49-0.883-0.98-1.764-1.471-2.646c3.35-1.971,6.699-3.941,10.048-5.913C49.196,71.265,49.679,72.348,50.161,73.431z"/>
<path fill-rule="evenodd" clip-rule="evenodd" fill="#FFFFFF" d="M50.396,86.489c-3.402,1.922-6.805,3.844-10.207,5.766
	c-0.522-0.94-1.045-1.881-1.567-2.821c3.4-1.927,6.8-3.856,10.2-5.783C49.346,84.596,49.871,85.543,50.396,86.489z"/>
<path fill-rule="evenodd" clip-rule="evenodd" fill="#FFFFFF" d="M50.473,99.978c-3.348,1.868-6.698,3.734-10.046,5.602
	c-0.519-0.911-1.038-1.823-1.557-2.734c3.313-1.963,6.625-3.925,9.937-5.889C49.363,97.964,49.917,98.971,50.473,99.978z"/>
</svg>
