<?xml version="1.0" encoding="utf-8"?>
<!-- Generator: Adobe Illustrator 16.0.0, SVG Export Plug-In . SVG Version: 6.00 Build 0)  -->
<!DOCTYPE svg PUBLIC "-//W3C//DTD SVG 1.1//EN" "http://www.w3.org/Graphics/SVG/1.1/DTD/svg11.dtd">
<svg version="1.1" id="Layer_1" xmlns="http://www.w3.org/2000/svg" xmlns:xlink="http://www.w3.org/1999/xlink" x="0px" y="0px"
	 width="163px" height="197px" viewBox="0 0 163 197" enable-background="new 0 0 163 197" xml:space="preserve">
<g>
	<path fill-rule="evenodd" clip-rule="evenodd" fill="#FEFEFE" d="M60.283,129.064c-10.367-0.001-20.736-0.104-31.101,0.058
		c-3.404,0.053-4.757-1.039-4.616-4.535c0.214-5.276,0.154-10.571,0.013-15.853c-0.068-2.531,0.272-3.56,3.296-2.996
		c26.486,4.93,45.449-19.711,39.786-40.783c-0.801-2.98,0.52-3.393,3.034-3.345c6.096,0.117,12.196,0.063,18.294,0.036
		c4.522-0.02,6.802,2.244,6.811,6.707c0.036,18.905-0.015,37.811,0.079,56.716c0.016,3.324-1.501,4.08-4.494,4.044
		C81.019,128.991,70.65,129.066,60.283,129.064z"/>
	<path fill-rule="evenodd" clip-rule="evenodd" fill="#FEFEFE" d="M72.372,135.042c8.001,0,15.923-0.237,23.822,0.096
		c4.178,0.176,5.526-0.871,5.45-5.279c-0.282-16.243,0.023-32.495-0.193-48.739c-0.069-5.166,1.529-7.264,6.972-7.191
		c25.939,0.349,22.652-2.469,37.829,19.786c4.453,6.53,6.839,13.13,6.259,21.011c-0.372,5.05,0.009,10.151-0.101,15.227
		c-0.066,3.031-0.271,5.475,4.21,5.25c3.674-0.183,2.718,3.234,2.878,5.517c0.179,2.553-0.467,4.425-3.565,4.389
		c-4.061-0.047-8.125-0.062-12.185,0.018c-1.925,0.038-2.67-0.738-3.338-2.601c-2.588-7.215-7.769-11.362-15.578-11.324
		c-7.511,0.035-12.718,3.923-15.199,10.945c-0.972,2.752-2.55,3.048-4.959,2.995c-5.48-0.119-11.02-0.521-16.437,0.077
		C80.229,146.103,74.098,144.704,72.372,135.042z"/>
	<path fill-rule="evenodd" clip-rule="evenodd" fill="#FDFDFD" d="M34.866,42.426c16.578,0.046,29.681,13.152,29.734,29.739
		c0.054,16.703-13.429,30.227-30.131,30.226C17.832,102.389,4.242,88.693,4.384,72.074C4.528,55.29,17.802,42.378,34.866,42.426z"/>
	<path fill-rule="evenodd" clip-rule="evenodd" fill="#FBFBFB" d="M124.609,159.577c-7.013-0.088-12.184-5.427-12.016-12.403
		c0.165-6.845,5.758-12.18,12.613-12.033c6.877,0.146,12.14,5.689,11.999,12.635C137.064,154.815,131.885,159.668,124.609,159.577z"
		/>
	<path fill-rule="evenodd" clip-rule="evenodd" fill="#FBFBFB" d="M59.937,159.577c-7.094-0.06-12.235-5.279-12.111-12.296
		c0.121-6.866,5.656-12.24,12.502-12.14c6.862,0.103,12.218,5.64,12.122,12.53C72.352,154.709,67.172,159.637,59.937,159.577z"/>
	<path fill-rule="evenodd" clip-rule="evenodd" fill="#FDFDFD" d="M48.047,135.047c0.154,0.771,0.291,1.09,0.218,1.147
		c-2.9,2.306-2.439,8.063-5.697,8.55c-6.723,1.003-13.733,0.71-20.559,0.146c-3.889-0.322-1.875-4.206-2.199-6.521
		c-0.387-2.757,1.471-3.347,3.801-3.336C31.692,135.068,39.773,135.047,48.047,135.047z"/>
	<path fill-rule="evenodd" clip-rule="evenodd" fill="#4974A3" d="M125.08,102.452c-0.607,0.004-1.214,0.004-1.82,0.004
		c-14.14,0-14.135,0-12.671-13.921c0.125-1.194,0.034-2.448,1.146-3.26c2.96-2.167,17.4,0.169,19.54,3.178
		c2.344,3.292,4.649,6.613,6.959,9.93c1.967,2.826,0.932,4.048-2.226,4.063C132.366,102.463,128.724,102.449,125.08,102.452z"/>
	<path fill-rule="evenodd" clip-rule="evenodd" fill="#4974A3" d="M57.657,72.739C57.469,85.57,46.836,95.837,34.03,95.553
		C21.213,95.267,11.061,84.65,11.298,71.782c0.235-12.746,11.108-23.267,23.686-22.917C47.787,49.223,57.846,59.814,57.657,72.739z"
		/>
	<path fill-rule="evenodd" clip-rule="evenodd" fill="#4974A3" d="M124.837,141.227c3.916,0.664,6.235,2.604,6.106,6.461
		c-0.127,3.843-2.461,5.963-6.231,5.864c-3.817-0.102-5.983-2.549-5.889-6.256C118.92,143.543,121.437,141.677,124.837,141.227z"/>
	<path fill-rule="evenodd" clip-rule="evenodd" fill="#4974A3" d="M66.328,147.511c-0.503,3.723-2.406,6.099-6.256,6.047
		c-3.824-0.052-6.035-2.388-6-6.129c0.035-3.747,2.331-6.049,6.123-6.02C64.003,141.438,65.899,143.86,66.328,147.511z"/>
	<path fill-rule="evenodd" clip-rule="evenodd" fill="#F7F7F7" d="M41.847,76.853c-9.682-0.956-11.176-2.601-11.169-12.328
		c0.002-2.638-0.016-5.276,0.069-7.913c0.051-1.613,1.029-2.725,2.577-2.893c1.905-0.208,3.02,1.007,3.328,2.792
		c0.205,1.187,0.204,2.435,0.118,3.642c-0.383,5.375-0.809,10.646,6.881,11.122c1.753,0.108,3.038,1.591,2.553,3.47
		C45.653,76.877,43.883,77.342,41.847,76.853z"/>
</g>
</svg>
