<?xml version="1.0" encoding="utf-8"?>
<!-- Generator: Adobe Illustrator 16.0.0, SVG Export Plug-In . SVG Version: 6.00 Build 0)  -->
<!DOCTYPE svg PUBLIC "-//W3C//DTD SVG 1.1//EN" "http://www.w3.org/Graphics/SVG/1.1/DTD/svg11.dtd">
<svg version="1.1" id="Layer_1" xmlns="http://www.w3.org/2000/svg" xmlns:xlink="http://www.w3.org/1999/xlink" x="0px" y="0px"
	 width="163px" height="197px" viewBox="0 0 163 197" enable-background="new 0 0 163 197" xml:space="preserve">
<g>
	<path fill-rule="evenodd" clip-rule="evenodd" fill="#FFFFFF" d="M15.5,142.625c-0.003-9.137-0.161-20.068-0.117-29.203
		c0.026-5.604,1.063-6.643,6.773-6.658c15.613-0.041,31.227,0.016,46.84-0.031c3.581-0.012,6.382,0.803,6.392,5.066
		c0.007,2.844,2.004,2.832,3.768,2.576c5.958-0.867,10.047,1.902,13.807,6.131c3.635,4.088,7.663,7.838,11.657,11.59
		c2.688,2.523,3.771,6.578,2.724,10.154c-8.218,0-10.596-0.012-15.937,0.102c-22.896,0.482-45.796-0.096-68.694,0.256
		C20.169,142.646,24.246,142.625,15.5,142.625z M86.215,120.846c-1.154-1.24-2.678-1.355-4.141-0.949
		c-1.994,0.553-1.403,2.373-1.45,3.76c-0.084,2.479-0.009,4.963-0.011,7.443c-0.002,1.658,0.385,2.961,2.426,2.955
		c5.068-0.012,10.138-0.004,15.422-0.004C94.057,129.299,90.143,125.066,86.215,120.846z"/>
	<path fill-rule="evenodd" clip-rule="evenodd" fill="#FFFFFF" d="M107.334,145c2.538,3.844,0.623,8.191-0.188,12.154
		c-0.496,2.42-3.031,2.658-5.314,2.762c-2.106,0.096-3.27-0.545-4.072-2.65c-1.912-5.01-5.824-7.742-11.125-7.816
		c-5.52-0.078-9.582,2.645-11.565,7.881c-0.802,2.117-2.034,2.67-4.12,2.588c-3.492-0.137-6.994,0.004-10.491-0.041
		c-5.241-0.068-9.907,0.865-13.479-5.799c-4.162-7.762-16.179-6.031-19.85,2.342c-1.841,4.199-4.617,3.688-7.615,3.311
		c-3.549-0.447-4.27-3.164-4.169-6.305c0.081-2.494,0.044-6.303,0.03-8.801c18.304,0,12.07-0.045,18.145-0.041
		c22.74,0.016,45.481-0.455,68.221,0.176C103.318,144.803,105.813,144.428,107.334,145z"/>
	<path fill-rule="evenodd" clip-rule="evenodd" fill="#FFFFFF" d="M111.75,138.75c-1.574-3.471-1.236-6.703,0.917-10.564
		c1.829-3.281-2.146-2.764-3.451-2.879c-4.93-0.432-7.549-1.63-11.549-6.296c4.982-0.377,9.478-0.171,13.926,0.825
		c3.085,0.691,4.496-0.068,5.165-3.322c1.009-4.906,1.633-9.844,2.265-14.795c0.321-2.516-0.421-3.693-3.168-3.636
		c-5.993,0.126-11.992,0.115-17.985,0.004c-2.473-0.046-3.185,1.105-3.155,3.32c0.058,4.313,0.286,9.88,0.286,14.604
		c-4.705-1.24-6.166-1.834-5.987-9.356c0.203-8.537,0.042-8.542-8.306-8.542c-3.664,0-7.329-0.038-10.992,0.015
		c-2.352,0.034-5.276-0.853-5.151,3.311c0.048,1.611-1.527,1.457-2.666,1.465c-1.153,0.008-2.646,0.119-2.682-1.48
		c-0.091-3.966-2.881-3.293-5.311-3.305c-2.998-0.016-5.997-0.057-8.993,0.019c-1.698,0.043-3.867-0.616-3.868,2.414
		c-0.001,3.85-3.038,2.018-4.809,2.326c-2.563,0.449-2.932-1.305-3.057-3.363c-1.006-16.625,3.724-31.424,15.078-43.584
		c16.461-17.629,36.858-23.689,60.015-16.976c23.18,6.721,37.564,22.801,41.469,46.525c4.395,26.705-7.52,49.568-30.999,62.146
		c-1.468,0.785-6.866,4.377-6.241,1.502c0.486-2.236-2.125-6.625,2.898-8.332c3.255-1.996,6.394-4.191,9.5-6.414
		c1.023-0.734,2.855-1.867,2.189-2.939c-1.257-2.025-3.953-2.227-6.086-3.104c-1.555-0.639-2.017,0.588-2.52,1.658
		C117.219,132.684,114.033,136.006,111.75,138.75z M117.828,79.538c-1.762-9.264-1.76-9.249-10.852-7.815
		c-1.639,0.259-3.313,0.284-4.955,0.521c-8.086,1.168-7.242-1.058-7.292,8.07c-0.065,12.028-0.019,12.028,11.909,12.028
		C120.262,92.342,120.263,92.342,117.828,79.538z M76.874,92.344c-1.165,0-2.33,0.005-3.495-0.001
		c-10.772-0.05-8.893,0.744-7.996-8.652c0.393-4.109,0.378-9.11,2.695-11.963c2.735-3.367,7.562,0.148,11.479,0.41
		c9.549,0.637,9.536,0.832,9.536,9.951c0,10.255,0,10.255-10.223,10.255C78.205,92.344,77.54,92.344,76.874,92.344z M134.12,98.11
		c9.733-0.001,9.709-0.007,7.393,9.49c-0.912,3.738-2.229,7.309-3.963,10.734c-4.552,8.992-4.494,8.857-13.452,5.09
		c-2.559-1.074-2.576-2.238-1.994-4.51c1.324-5.156,2.469-10.406,2.373-15.752c-0.075-4.186,1.637-5.684,5.652-5.083
		C131.432,98.274,132.788,98.11,134.12,98.11z M133.65,92.343c-0.334,0-0.666,0.005-1,0c-8.635-0.14-7.48,1.13-8.334-7.581
		c-0.421-4.292-1.068-8.613-2.188-12.767c-0.792-2.94-0.043-4.01,2.663-5.076c8.27-3.258,8.229-3.389,12.438,4.709
		c2.551,4.909,4.178,10.112,5.198,15.556c0.69,3.681,0.11,5.826-4.286,5.191C136.673,92.165,135.148,92.342,133.65,92.343z
		 M49.67,92.343c-9.775-0.001-9.77,0.001-7.384-9.583c1.46-5.867,3.994-11.237,7.298-16.288c1.259-1.925,2.332-2.646,4.806-1.555
		c7.65,3.371,7.65,3.218,6.176,11.433c-0.616,3.428-1.343,6.928-1.234,10.37c0.149,4.691-1.767,6.277-6.173,5.647
		C52.018,92.205,50.834,92.343,49.67,92.343z M94.709,55.481c-0.005-2.498,0.094-5.002-0.027-7.494
		c-0.182-3.704,1.395-4.613,4.479-2.843c6.848,3.932,10.615,10.363,13.718,17.297c0.853,1.907-0.36,2.359-1.827,2.571
		c-4.279,0.619-8.566,1.189-12.847,1.813c-2.638,0.385-3.624-0.783-3.516-3.351C94.801,60.814,94.713,58.146,94.709,55.481z
		 M89.101,55.285C89.1,67.848,89.1,67.848,76.482,65.792c-7.021-1.144-7.047-1.168-3.668-7.429
		c2.867-5.313,6.278-10.19,11.722-13.19c2.803-1.544,4.8-1.371,4.589,2.651C88.995,50.305,89.102,52.798,89.101,55.285z
		 M71.556,48.486c-2.337,4.434-4.399,7.802-5.911,11.4c-1.041,2.476-2.361,2.946-4.508,1.834c-1.561-0.809-4.092-0.799-4.443-2.636
		c-0.37-1.936,2.036-2.752,3.36-3.853C63.208,52.612,66.648,50.396,71.556,48.486z M111.909,48.532
		c6.183,2.22,10.33,5.348,14.297,8.789c1.757,1.524,1.011,2.263-0.656,3.188c-4.962,2.755-5.767,2.531-8.34-2.726
		c-0.726-1.482-1.538-2.924-2.354-4.358C114.124,52.139,113.332,50.887,111.909,48.532z"/>
	<path fill-rule="evenodd" clip-rule="evenodd" fill="#FFFFFF" d="M47.206,161.563c0.025,4.945-4.129,9.203-9.089,9.313
		c-5.131,0.115-9.563-4.324-9.449-9.461c0.111-4.965,4.392-9.123,9.345-9.072C42.976,152.391,47.18,156.607,47.206,161.563z
		 M33.44,161.621c0.051,2.973,1.899,4.607,4.873,4.408c2.746-0.182,4.208-1.92,4.061-4.678c-0.149-2.783-1.923-4.055-4.563-4.318
		C35.167,157.467,33.393,158.9,33.44,161.621z"/>
	<path fill-rule="evenodd" clip-rule="evenodd" fill="#FFFFFF" d="M86.625,152.33c5.059,0.133,9.033,4.365,8.926,9.504
		c-0.107,5.137-4.287,9.174-9.359,9.039c-5.068-0.133-9.039-4.336-8.949-9.473C77.33,156.361,81.636,152.199,86.625,152.33z
		 M90.922,161.566c-0.098-2.879-1.926-4.678-4.912-4.439c-2.715,0.217-4.197,2.053-4.031,4.766c0.166,2.727,1.867,4.125,4.896,4.236
		C89.273,165.764,91.011,164.232,90.922,161.566z"/>
</g>
</svg>
