<?xml version="1.0" encoding="utf-8"?>
<!-- Generator: Adobe Illustrator 16.0.0, SVG Export Plug-In . SVG Version: 6.00 Build 0)  -->
<!DOCTYPE svg PUBLIC "-//W3C//DTD SVG 1.1//EN" "http://www.w3.org/Graphics/SVG/1.1/DTD/svg11.dtd">
<svg version="1.1" id="Layer_1" xmlns="http://www.w3.org/2000/svg" xmlns:xlink="http://www.w3.org/1999/xlink" x="0px" y="0px"
	 width="163px" height="197px" viewBox="0 0 163 197" enable-background="new 0 0 163 197" xml:space="preserve">
<path fill-rule="evenodd" clip-rule="evenodd" fill="#FFFFFF" d="M87.482,156.96c-19.762,0-39.313,0.159-58.858-0.099
	c-5.588-0.073-8.548-3.963-8.561-9.429c-0.086-36.905-0.101-73.81,0-110.715c0.019-6.928,3.436-9.909,10.448-9.977
	c2.267-0.023,4.551,0.169,6.8-0.04c4.93-0.456,8.667-0.538,9.336,6.393c0.455,4.714,5.026,7.431,10.093,7.494
	c10.307,0.129,20.62,0.187,30.925-0.012c6.316-0.123,10.598-3.761,11.181-10.129c0.33-3.597,1.798-3.695,4.541-3.755
	c21.146-0.462,21.844,2.127,21.468,20.771c-0.356,17.517-0.039,35.049-0.131,52.575c-0.01,1.895,1.234,4.782-1.086,5.539
	c-3.043,0.994-6.52,1.294-9.712,0.967c-1.831-0.188-0.905-2.813-0.913-4.299c-0.074-15.053-0.193-30.105,0.058-45.152
	c0.065-3.911-1.087-4.756-4.825-4.729c-23.916,0.172-47.833,0.154-71.749,0.015c-3.583-0.021-5.042,0.603-5.014,4.675
	c0.186,27.834,0.19,55.668-0.003,83.501c-0.03,4.27,1.453,5.057,5.312,4.997c13.605-0.215,27.223,0.193,40.817-0.218
	c5.563-0.166,8.976,0.789,8.923,7.083C86.521,153.792,87.092,155.174,87.482,156.96z"/>
<path fill-rule="evenodd" clip-rule="evenodd" fill="#FFFFFF" d="M122.487,113.068c16.787,0.015,30.254,13.485,30.193,30.202
	c-0.06,16.406-14.173,30.636-30.313,30.563c-16.23-0.072-30.229-14.293-30.198-30.682
	C92.198,126.373,105.624,113.053,122.487,113.068z"/>
<path fill-rule="evenodd" clip-rule="evenodd" fill="#FFFFFF" d="M72.074,36.164c-4.515-0.001-9.031,0.06-13.544-0.019
	c-4.701-0.082-8.164-1.979-8.075-7.187c0.081-4.786,3.292-6.986,7.752-6.853c4.041,0.121,5.85-1.212,6.432-5.41
	c0.527-3.795,3.44-5.909,7.46-6.024c4.305-0.123,7.455,2.04,8.049,6.069c0.628,4.245,2.454,5.433,6.45,5.376
	c4.37-0.062,7.686,1.976,7.735,6.868c0.056,5.27-3.438,7.065-8.099,7.159C81.517,36.237,76.796,36.164,72.074,36.164z"/>
<path fill-rule="evenodd" clip-rule="evenodd" fill="#FFFFFF" d="M82.418,71.096c-5.347-0.002-10.694-0.047-16.039,0.019
	c-2.555,0.031-4.515-0.437-4.528-3.577c-0.013-3.136,1.939-3.632,4.495-3.624c11.104,0.038,22.207,0.027,33.31,0.009
	c2.297-0.004,4.126,0.526,4.247,3.261c0.13,2.924-1.459,3.965-4.215,3.932C93.933,71.049,88.174,71.097,82.418,71.096z"/>
<path fill-rule="evenodd" clip-rule="evenodd" fill="#FFFFFF" d="M82.449,92.099c-5.343,0.002-10.687-0.018-16.029,0.008
	c-2.511,0.014-4.524-0.465-4.571-3.597c-0.048-3.178,1.944-3.598,4.481-3.589c11.097,0.038,22.193,0.036,33.29-0.001
	c2.311-0.008,4.125,0.485,4.275,3.202c0.159,2.917-1.448,4.007-4.186,3.989C93.957,92.071,88.202,92.098,82.449,92.099z"/>
<path fill-rule="evenodd" clip-rule="evenodd" fill="#FFFFFF" d="M77.274,103.526c3.497,0,6.993,0.075,10.486-0.024
	c2.662-0.074,4.453,0.675,4.414,3.704c-0.033,2.669-1.614,3.494-4.023,3.482c-7.402-0.03-14.806-0.03-22.208,0.006
	c-2.377,0.013-4.001-0.685-4.103-3.402c-0.115-3.093,1.708-3.813,4.331-3.777C69.872,103.563,73.574,103.526,77.274,103.526z"/>
<path fill-rule="evenodd" clip-rule="evenodd" fill="#FFFFFF" d="M74.715,124.533c3.088-0.004,6.178,0.037,9.266-0.017
	c2.245-0.039,3.518,0.939,3.603,3.213c0.09,2.468-1.056,3.933-3.628,3.945c-6.177,0.026-12.354,0.021-18.531-0.011
	c-2.566-0.014-3.684-1.403-3.59-3.935c0.089-2.376,1.439-3.208,3.615-3.194C68.538,124.552,71.627,124.538,74.715,124.533z"/>
<path fill-rule="evenodd" clip-rule="evenodd" fill="#FFFFFF" d="M57.937,60.642c0.017,1.506-8.704,11.68-9.969,11.81
	c-3.342,0.342-4.741-2.758-7.057-4.235c-0.844-0.538-1.466-1.525-0.85-2.637c0.521-0.939,1.67-1.853,2.447-1.115
	c5.973,5.681,7.492-1.233,10.561-3.648c1.082-0.85,1.828-2.444,3.549-1.603C57.249,59.523,57.645,60.313,57.937,60.642z"/>
<path fill-rule="evenodd" clip-rule="evenodd" fill="#FFFFFF" d="M47.801,113.644c-3.408-1.746-5.854-3.573-7.747-6.043
	c-0.524-0.685-0.198-1.557,0.502-2.176c0.908-0.807,2.02-0.919,2.764-0.097c3.527,3.894,5.519,1.054,7.632-1.591
	c0.771-0.964,1.64-1.852,2.462-2.774c1.033-1.163,2.244-2.063,3.712-0.912c1.645,1.289,0.576,2.621-0.372,3.696
	C53.796,107.1,50.759,110.385,47.801,113.644z"/>
<path fill-rule="evenodd" clip-rule="evenodd" fill="#FFFFFF" d="M58.292,82.339c-3.367,3.604-6.269,7.845-10.224,10.548
	c-2.659,1.818-4.67-2.359-6.976-3.823c-1.06-0.672-1.81-1.83-0.853-3.139c0.663-0.905,1.911-1.41,2.688-0.607
	c4.58,4.735,6.446,0.116,8.951-2.45c0.999-1.022,1.925-2.275,3.151-2.881C56.746,79.136,57.517,80.449,58.292,82.339z"/>
<path fill-rule="evenodd" clip-rule="evenodd" fill="#FFFFFF" d="M57.884,121.443c-0.128,1.523-8.944,11.534-10.136,11.534
	c-3.215-0.005-4.708-2.884-6.979-4.465c-0.901-0.626-1.276-1.663-0.614-2.672c0.582-0.884,1.741-1.716,2.559-0.889
	c5.172,5.248,6.958-0.316,9.692-2.901c0.879-0.832,1.648-1.986,2.699-2.388C56.737,119.041,57.76,119.971,57.884,121.443z"/>
<path fill-rule="evenodd" clip-rule="evenodd" fill="#4D74A3" d="M120.245,159.563c-1.158-0.485-2.419-0.747-3.345-1.45
	c-3.758-2.865-7.47-5.8-11.087-8.843c-2.155-1.813-2.743-4.173-0.909-6.527c1.801-2.313,3.989-2.313,6.542-0.848
	c3.03,1.74,5.069,6.725,8.755,5.224c3.083-1.258,5.064-5.205,7.548-7.949c2.62-2.895,5.146-5.886,7.921-8.622
	c1.85-1.824,4.15-1.789,6.102-0.026c1.95,1.763,2.291,4.088,0.578,6.061c-6.334,7.291-12.802,14.465-19.296,21.613
	C122.436,158.88,121.283,159.078,120.245,159.563z"/>
<path fill-rule="evenodd" clip-rule="evenodd" fill="#4D74A3" d="M72.39,15.281c2.054,0.267,3.465,1.276,3.34,3.493
	c-0.122,2.149-1.469,3.258-3.622,3.176c-1.95-0.074-2.94-1.372-3.019-3.14C68.996,16.673,70.25,15.489,72.39,15.281z"/>
</svg>
