<?xml version="1.0" encoding="utf-8"?>
<!-- Generator: Adobe Illustrator 16.0.0, SVG Export Plug-In . SVG Version: 6.00 Build 0)  -->
<!DOCTYPE svg PUBLIC "-//W3C//DTD SVG 1.1//EN" "http://www.w3.org/Graphics/SVG/1.1/DTD/svg11.dtd">
<svg version="1.1" id="Layer_1" xmlns="http://www.w3.org/2000/svg" xmlns:xlink="http://www.w3.org/1999/xlink" x="0px" y="0px"
	 width="163px" height="197px" viewBox="0 0 163 197" enable-background="new 0 0 163 197" xml:space="preserve">
<path fill="#FFFFFF" d="M82.954,191.332c5.921-12.051,11.588-23.573,17.239-35.105c11.607-23.686,23.396-47.29,34.758-71.094
	c14.777-30.953,0.214-66.87-31.661-78.818C71.328-5.665,36.044,11.978,26.72,44.646c-3.803,13.324-3.058,26.504,2.94,38.936
	c16.884,34.992,34.108,69.82,51.22,104.701C81.311,189.161,81.982,189.916,82.954,191.332z M114.633,60.306
	c-0.13,17.558-14.697,31.777-32.314,31.539c-17.389-0.232-31.687-14.453-31.76-31.591c-0.077-17.664,14.718-32.03,32.733-31.782
	C100.668,28.711,114.763,43.025,114.633,60.306z"/>
</svg>
