<?xml version="1.0" encoding="utf-8"?>
<!-- Generator: Adobe Illustrator 16.0.0, SVG Export Plug-In . SVG Version: 6.00 Build 0)  -->
<!DOCTYPE svg PUBLIC "-//W3C//DTD SVG 1.1//EN" "http://www.w3.org/Graphics/SVG/1.1/DTD/svg11.dtd">
<svg version="1.1" id="Layer_1" xmlns="http://www.w3.org/2000/svg" xmlns:xlink="http://www.w3.org/1999/xlink" x="0px" y="0px"
	 width="163px" height="197px" viewBox="0 0 163 197" enable-background="new 0 0 163 197" xml:space="preserve">
<path fill="#FFFFFF" d="M40.375,191.332c3.537-7.199,6.923-14.083,10.299-20.973c6.935-14.15,13.977-28.251,20.765-42.472
	c8.828-18.493,0.128-39.95-18.915-47.088C33.429,73.642,12.35,84.182,6.78,103.699c-2.272,7.96-1.827,15.834,1.756,23.261
	c10.087,20.905,20.377,41.712,30.6,62.551C39.393,190.035,39.795,190.486,40.375,191.332z M59.301,113.054
	c-0.078,10.49-8.781,18.985-19.306,18.843c-10.388-0.139-18.93-8.635-18.974-18.873c-0.046-10.553,8.793-19.136,19.555-18.988
	C50.958,94.179,59.378,102.73,59.301,113.054z"/>
<path fill="#FFFFFF" d="M47.476,190.639c20.951-1.623,40.372-5.689,56.75-18.7c18.107-14.384,24.496-37.175,17.203-60.595
	c-1.561-5.01-3.568-9.884-5.479-14.777c-2.713-6.952-1.639-13.453,3.179-18.853c4.688-5.255,10.092-9.867,15.837-15.396
	c-1.086-0.283-2.404-1.113-3.297-0.783c-9.579,3.533-18.6,8.097-25.808,15.565c-7.666,7.941-10.369,17.205-7.054,27.979
	c2.498,8.123,4.115,16.279,2.711,24.913c-1.68,10.322-7.14,17.729-16.551,21.695c-5.545,2.337-11.625,3.494-17.551,4.785
	c-2.49,0.542-4.019,1.377-5.15,3.779C57.589,170.183,52.679,180.004,47.476,190.639z"/>
<path fill="#FFFFFF" d="M138.295,62.371c5.635-11.546,11.086-22.308,16.156-33.25c3.345-7.221,1-15.406-5.235-20.335
	c-6.321-4.995-15.318-5.052-21.722-0.138c-6.208,4.766-8.636,13.142-5.447,20.378c2.948,6.692,6.359,13.181,9.575,19.755
	C133.706,53.045,135.806,57.303,138.295,62.371z M138.022,12.888c5.242-0.134,9.702,3.996,9.932,9.195
	c0.226,5.107-4.039,9.671-9.246,9.896c-5.347,0.229-10.036-4.108-10.152-9.392C128.445,17.485,132.801,13.021,138.022,12.888z"/>
</svg>
