<?xml version="1.0" encoding="utf-8"?>
<!-- Generator: Adobe Illustrator 16.0.0, SVG Export Plug-In . SVG Version: 6.00 Build 0)  -->
<!DOCTYPE svg PUBLIC "-//W3C//DTD SVG 1.1//EN" "http://www.w3.org/Graphics/SVG/1.1/DTD/svg11.dtd">
<svg version="1.1" id="Layer_1" xmlns="http://www.w3.org/2000/svg" xmlns:xlink="http://www.w3.org/1999/xlink" x="0px" y="0px"
	 width="163px" height="197px" viewBox="0 0 163 197" enable-background="new 0 0 163 197" xml:space="preserve">
<path fill-rule="evenodd" clip-rule="evenodd" fill="#FFFFFF" d="M126.229,27.436c-8.056,0.002-16.117-0.157-24.164,0.113
	c-2.063,0.07-4.608,0.965-6.038,2.386c-27.906,27.743-55.684,55.616-83.473,83.478c-3.179,3.187-3.213,5.586-0.102,8.713
	c16.995,17.075,34.006,34.132,51.037,51.17c2.996,2.996,5.445,2.996,8.458-0.025c27.871-27.934,55.744-55.866,83.499-83.916
	c1.354-1.368,2.267-3.812,2.288-5.767c0.183-16.479,0.121-32.962,0.104-49.443c-0.005-4.796-1.935-6.69-6.789-6.705
	C142.777,27.415,134.504,27.433,126.229,27.436z M147.613,37.553c0.084,1.104,0.161,1.64,0.161,2.176
	c0.007,13.75,0.073,27.5-0.09,41.248c-0.018,1.484-1.048,3.274-2.149,4.381c-25.129,25.269-50.333,50.462-75.526,75.667
	c-0.74,0.74-1.514,1.446-2.183,2.084c-15.172-15.354-30.083-30.442-45.128-45.667c0.283-0.316,0.755-0.896,1.28-1.423
	c25.469-25.546,50.926-51.104,76.474-76.57c1.073-1.071,2.99-1.796,4.525-1.816c11.535-0.149,23.073-0.081,34.61-0.081
	C142.177,37.553,144.767,37.553,147.613,37.553z"/>
<path fill-rule="evenodd" clip-rule="evenodd" fill="#FFFFFF" d="M140.845,61.115c0.073-8.997-7.184-16.338-16.323-16.513
	c-9.243-0.177-16.65,7.086-16.723,16.396c-0.07,8.972,7.27,16.471,16.274,16.627C133.062,77.783,140.771,70.193,140.845,61.115z
	 M124.368,54.61c3.742,0.06,6.667,3.047,6.51,6.648c-0.149,3.417-3.221,6.399-6.59,6.398c-3.395-0.001-6.647-3.393-6.523-6.802
	C117.89,57.397,120.895,54.556,124.368,54.61z"/>
</svg>
