<?xml version="1.0" encoding="utf-8"?>
<!-- Generator: Adobe Illustrator 16.0.0, SVG Export Plug-In . SVG Version: 6.00 Build 0)  -->
<!DOCTYPE svg PUBLIC "-//W3C//DTD SVG 1.1//EN" "http://www.w3.org/Graphics/SVG/1.1/DTD/svg11.dtd">
<svg version="1.1" id="Layer_1" xmlns="http://www.w3.org/2000/svg" xmlns:xlink="http://www.w3.org/1999/xlink" x="0px" y="0px"
	 width="163px" height="197px" viewBox="0 0 163 197" enable-background="new 0 0 163 197" xml:space="preserve">
<g>
	<g>
		<path fill-rule="evenodd" clip-rule="evenodd" fill="#FFFFFF" d="M70.327,195.316c22.722-13.109,44.751-25.817,67.363-38.863
			c-22.566-13.016-44.517-25.674-67.083-38.688c0,6.435,0,12.32,0,18.811c-18.199-0.104-32.832-6.464-43.881-20.401
			c-14.42-18.19-16.609-43.923-5.525-63.595c5.177,1.601,10.334,3.419,15.611,4.764c5.323,1.356,10.767,2.243,16.074,3.319
			c0,14.592,0,29.158,0,44.007c-6.531,1.393-13.42,2.861-21.057,4.488c2.418,2.714,4.047,4.97,6.118,6.692
			c1.126,0.937,3.063,1.469,4.537,1.306c3.952-0.438,7.853-1.349,12.07-2.127c0.684,3.393,1.486,6.397,1.854,9.455
			c0.451,3.746,2.568,4.714,6.369,4.284c0-7.874,0-15.674,0-23.474c0.244-0.336,0.488-0.673,0.732-1.01
			c9.848,9.978,22.379,9.458,34.889,9.282c-0.119,1.262-0.136,1.863-0.237,2.449c-1.588,9.175-1.591,9.175,7.741,12.97
			c0.992-4.627,1.969-9.184,3.13-14.601c9.449,2.153,18.718,4.266,27.986,6.378c0.125,0.528,0.249,1.058,0.374,1.586
			c-5.227,5.281-10.452,10.563-15.896,16.063c3.179,1.637,6.396,3.508,9.807,4.913c0.996,0.411,2.898-0.102,3.78-0.877
			c14.646-12.882,23.856-28.912,26.434-48.276c5.88-44.191-22.692-82.991-66.649-90.961C52.215-4.523,9.31,25.693,2.328,68.64
			c-5.879,36.15,6.424,86.775,64.157,105.253c3.118,0.997,4.065,2.354,3.91,5.469C70.142,184.429,70.327,189.519,70.327,195.316z
			 M142.994,53.576c8.81,19.312,8.875,38.958,0.001,58.242c-11.231-2.686-21.986-5.258-32.421-7.753c0-14.286,0-28.702,0-42.705
			C121.248,58.797,131.895,56.24,142.994,53.576z M63.664,103.256c-1.392-13.761-1.419-27.489,0.018-41.09
			c12.288,0,24.104,0,36.46,0c0,13.833,0,27.366,0,41.09C87.662,103.256,75.835,103.256,63.664,103.256z M64.875,51.684
			c0.81-4.106,1.349-7.657,2.226-11.122c2.06-8.135,4.36-16.218,9.597-23.016c2.98-3.868,6.932-3.815,10.017-0.027
			c0.942,1.158,1.799,2.415,2.514,3.725c5.1,9.339,7.473,19.505,9.291,30.44C87.282,51.684,76.35,51.684,64.875,51.684z
			 M109.648,50.881c-3.368-11.772-6.44-22.513-9.552-33.389c15.123,4.252,27.455,13.03,37.655,27.001
			C127.738,46.769,118.543,48.859,109.648,50.881z M26.126,43.868c10.209-13.67,22.379-22.201,37.249-26.369
			c-3.129,10.821-6.223,21.52-9.572,33.105C45.164,48.5,36.071,46.288,26.126,43.868z"/>
	</g>
</g>
</svg>
