<?xml version="1.0" encoding="utf-8"?>
<!-- Generator: Adobe Illustrator 16.0.0, SVG Export Plug-In . SVG Version: 6.00 Build 0)  -->
<!DOCTYPE svg PUBLIC "-//W3C//DTD SVG 1.1//EN" "http://www.w3.org/Graphics/SVG/1.1/DTD/svg11.dtd">
<svg version="1.1" id="Layer_1" xmlns="http://www.w3.org/2000/svg" xmlns:xlink="http://www.w3.org/1999/xlink" x="0px" y="0px"
	 width="163px" height="197px" viewBox="0 0 163 197" enable-background="new 0 0 163 197" xml:space="preserve">
<path fill-rule="evenodd" clip-rule="evenodd" fill="#FFFFFF" d="M40.904,173.734c27.583,0,54.674,0,82.335,0
	c0-2.378,0-4.691,0-7.005c0-6.035,0.042-12.07-0.01-18.104c-0.085-9.768-6.945-16.965-16.691-17.061
	c-16.229-0.163-32.461-0.155-48.688,0.002c-9.176,0.088-16.249,6.53-16.782,15.532c-0.455,7.665-0.139,15.376-0.163,23.067
	C40.902,171.217,40.904,172.267,40.904,173.734z"/>
<path fill-rule="evenodd" clip-rule="evenodd" fill="#FFFFFF" d="M105.83,98.643c-0.032-13.135-10.604-23.616-23.764-23.56
	c-13.128,0.057-23.591,10.657-23.509,23.816c0.08,12.948,10.561,23.335,23.587,23.379C95.283,122.318,105.863,111.763,105.83,98.643
	z"/>
<path fill-rule="evenodd" clip-rule="evenodd" fill="#FFFFFF" d="M1.074,81.93c15.294,0,30.128,0,45.244,0
	c0-5.359,0.328-10.539-0.101-15.657c-0.365-4.339-4.118-7.382-8.601-7.444c-9.221-0.126-18.446-0.146-27.666,0.006
	c-4.85,0.08-8.373,3.688-8.833,8.515c-0.078,0.82-0.041,1.652-0.042,2.478C1.072,73.719,1.074,77.609,1.074,81.93z"/>
<path fill-rule="evenodd" clip-rule="evenodd" fill="#FFFFFF" d="M116.868,81.892c15.083,0,29.803,0,44.792,0
	c0-5.397,0.203-10.583-0.067-15.744c-0.205-3.888-3.852-7.209-7.929-7.277c-9.461-0.157-18.928-0.16-28.39-0.015
	c-4.511,0.068-8.13,3.591-8.354,8.099C116.682,71.779,116.868,76.624,116.868,81.892z"/>
<path fill-rule="evenodd" clip-rule="evenodd" fill="#FFFFFF" d="M152.42,40.632c0.021-7.227-5.814-13.023-13.092-13.005
	c-7.231,0.018-13.149,5.967-13.04,13.108c0.107,7.009,5.937,12.811,12.964,12.905C146.398,53.735,152.397,47.809,152.42,40.632z"/>
<path fill-rule="evenodd" clip-rule="evenodd" fill="#FFFFFF" d="M36.814,40.488c-0.056-7.267-5.874-12.943-13.185-12.861
	c-7.106,0.079-12.765,5.794-12.779,12.904c-0.015,7.24,5.823,13.124,13.003,13.108C31.068,53.624,36.869,47.736,36.814,40.488z"/>
<path fill-rule="evenodd" clip-rule="evenodd" fill="#FFFFFF" d="M82.771,49.511c-6.509-0.004-13.016-0.037-19.524,0.009
	c-4.065,0.028-6.237,1.89-6.223,5.167c0.014,3.263,2.164,5.093,6.292,5.106c13.134,0.039,26.269,0.036,39.403-0.006
	c3.968-0.012,6.306-2.023,6.28-5.167c-0.025-3.132-2.372-5.07-6.35-5.096C96.023,49.483,89.397,49.513,82.771,49.511z"/>
<path fill-rule="evenodd" clip-rule="evenodd" fill="#FFFFFF" d="M27.608,89.299c-4.988-0.074-7.765,4.271-5.385,7.716
	c6.318,9.147,12.892,18.124,19.577,27.008c1.794,2.386,4.592,2.44,6.99,0.595c2.26-1.743,2.915-4.273,1.258-6.618
	c-6.414-9.083-12.97-18.067-19.602-26.992C29.699,90.001,28.132,89.6,27.608,89.299z"/>
<path fill-rule="evenodd" clip-rule="evenodd" fill="#FFFFFF" d="M118.54,125.781c0.701-0.523,2.559-1.309,3.49-2.706
	c5.499-8.258,10.837-16.625,16.104-25.03c1.783-2.842,0.973-5.833-1.626-7.392c-2.427-1.455-5.373-0.876-7.112,1.78
	c-5.494,8.401-10.954,16.828-16.224,25.372C110.918,121.461,113.303,125.644,118.54,125.781z"/>
</svg>
