<?xml version="1.0" encoding="utf-8"?>
<!-- Generator: Adobe Illustrator 16.0.0, SVG Export Plug-In . SVG Version: 6.00 Build 0)  -->
<!DOCTYPE svg PUBLIC "-//W3C//DTD SVG 1.1//EN" "http://www.w3.org/Graphics/SVG/1.1/DTD/svg11.dtd">
<svg version="1.1" id="Layer_1" xmlns="http://www.w3.org/2000/svg" xmlns:xlink="http://www.w3.org/1999/xlink" x="0px" y="0px"
	 width="163px" height="197px" viewBox="0 0 163 197" enable-background="new 0 0 163 197" xml:space="preserve">
<g>
	<path fill-rule="evenodd" clip-rule="evenodd" fill="#FEFEFE" d="M29.625,77.446c-1.429-8.86,0.324-16.202,6.345-23.099
		c13.484-15.447,6.502-12.48,26.869-12.723c16.493-0.197,32.991,0.06,49.485-0.112c4.068-0.042,6.58,1.675,9.402,4.429
		c10.73,10.469,14.639,22.639,13.557,37.729c-1.234,17.24-0.271,34.637-0.292,51.966c-0.009,7.245-2.63,9.847-9.967,9.859
		c-15.437,0.028-30.874,0.009-46.454-0.594c1.317-0.437,2.654-0.821,3.949-1.318c5.301-2.033,8.146-6.769,6.758-12.312
		c-4.441-17.746-9.002-35.465-13.754-53.13c-1.752-6.514-6.855-9.388-13.489-7.668c-5.567,1.443-10.437,1.48-15.433-2.12
		c-4.274-3.078-10.231-0.776-12.305,4.444C33.328,75.237,31.868,76.439,29.625,77.446z"/>
	<path fill-rule="evenodd" clip-rule="evenodd" fill="#FDFDFD" d="M84.965,132.977c-0.232,3.592-1.84,5.628-4.677,6.378
		c-13.177,3.482-26.374,6.889-39.583,10.246c-4.065,1.033-6.825-0.507-7.916-4.665c-4.515-17.2-9.096-34.384-13.483-51.616
		c-1.35-5.301,4.988-11.012,10.25-9.522c0.296,0.084,0.703,0.26,0.8,0.498c3.074,7.502,8.648,4.054,13.584,3.047
		c2.926-0.597,5.805-1.45,8.672-2.3c2.393-0.709,4.596-2.212,4.375-4.803c-0.524-6.149,4.577-4.707,7.43-5.396
		c3.53-0.854,5.805,1.535,6.721,5.116c2.966,11.592,6.005,23.166,9.026,34.744C81.799,120.97,83.455,127.229,84.965,132.977z"/>
	<path fill-rule="evenodd" clip-rule="evenodd" fill="#FAFAFA" d="M37.441,86.612c-2.728,0.077-4.032-0.783-4.495-2.626
		c-0.468-1.859,0.277-3.491,2.027-4.014c2.382-0.711,3.603-1.707,3.434-4.455c-0.105-1.7,1.279-2.956,3.057-3.475
		c1.848-0.539,3.49,0.091,4.282,1.608c1.214,2.329,2.604,2.928,5.145,2.141c1.767-0.548,3.18,0.749,3.795,2.456
		c0.665,1.843-0.122,3.564-1.804,4.088C47.528,84.002,42.077,85.353,37.441,86.612z"/>
	<path fill-rule="evenodd" clip-rule="evenodd" fill="#4D74A3" d="M36.851,59.328c1.549-4.115,4.229-5.042,7.971-4.895
		c6.819,0.269,13.668-0.159,20.482,0.174c3.425,0.168,4.676-1.469,5.978-4.762c-9.129,0-17.784,0-26.831,0
		c1.747-4.107,4.238-5.265,8.052-5.232c19.822,0.166,39.646,0.168,59.468-0.002c3.832-0.033,6.209,1.31,8.157,5.188
		c-7.924,0-15.341-0.083-22.753,0.069c-1.51,0.031-4.181-1.325-4.406,1.396c-0.263,3.186,2.291,3.322,4.844,3.283
		c7.161-0.11,14.336,0.19,21.484-0.128c3.945-0.177,6.727,0.803,8.389,4.908C97.416,59.328,67.287,59.328,36.851,59.328z"/>
	<path fill-rule="evenodd" clip-rule="evenodd" fill="#4D74A3" d="M78.663,132.221c0.345,1.686-1.158,1.738-2.145,1.999
		c-11.716,3.095-23.454,6.109-35.173,9.195c-2.007,0.528-2.902,0.074-3.455-2.112c-3.414-13.517-6.946-27.005-10.576-40.465
		c-0.657-2.436,0.104-3.089,2.355-3.65c11.595-2.893,23.159-5.916,34.695-9.037c1.836-0.497,2.742-0.344,3.234,1.572
		c3.598,13.984,7.236,27.96,10.862,41.937C78.504,131.819,78.573,131.973,78.663,132.221z"/>
	<path fill-rule="evenodd" clip-rule="evenodd" fill="#F6F6F6" d="M36.011,105.398c-2.745,0.629-3.769,0.414-3.99-1.137
		c-0.184-1.293,0.681-1.687,1.72-1.957c9.279-2.419,18.559-4.833,27.825-7.299c1.328-0.354,2.275-0.282,2.682,1.209
		c0.329,1.206-0.259,1.92-1.338,2.201C53.471,100.884,44.025,103.322,36.011,105.398z"/>
	<path fill-rule="evenodd" clip-rule="evenodd" fill="#F5F5F5" d="M67.059,106.801c-0.136,2.075-1.608,1.995-2.606,2.261
		c-8.836,2.35-17.701,4.591-26.54,6.93c-1.435,0.379-2.687,0.67-3.092-1.199c-0.335-1.546,0.79-1.964,1.991-2.274
		c9.012-2.329,18.021-4.672,27.033-7.004C65.416,105.107,66.848,105.006,67.059,106.801z"/>
	<path fill-rule="evenodd" clip-rule="evenodd" fill="#F2F2F2" d="M39.628,125.427c-1.626,0.181-2.349-0.394-2.555-1.524
		c-0.174-0.955,0.359-1.604,1.255-1.843c7.686-2.054,15.378-4.079,23.065-6.124c1.245-0.332,1.885,0.389,2.299,1.345
		c0.402,0.929-0.097,1.751-0.931,1.978C54.925,121.393,47.068,123.454,39.628,125.427z"/>
	<path fill-rule="evenodd" clip-rule="evenodd" fill="#F3F3F3" d="M64.079,128.535c0.111,1.647-1.094,1.806-2.241,2.103
		c-6.262,1.617-12.513,3.274-18.777,4.882c-1.251,0.32-2.752,0.896-3.156-1.109c-0.392-1.944,1.245-2.069,2.463-2.392
		c6.252-1.653,12.53-3.213,18.772-4.903C62.696,126.694,63.734,126.77,64.079,128.535z"/>
</g>
</svg>
