<?xml version="1.0" encoding="utf-8"?>
<!-- Generator: Adobe Illustrator 16.0.0, SVG Export Plug-In . SVG Version: 6.00 Build 0)  -->
<!DOCTYPE svg PUBLIC "-//W3C//DTD SVG 1.1//EN" "http://www.w3.org/Graphics/SVG/1.1/DTD/svg11.dtd">
<svg version="1.1" id="Layer_1" xmlns="http://www.w3.org/2000/svg" xmlns:xlink="http://www.w3.org/1999/xlink" x="0px" y="0px"
	 width="163px" height="197px" viewBox="0 0 163 197" enable-background="new 0 0 163 197" xml:space="preserve">
<path fill-rule="evenodd" clip-rule="evenodd" fill="#FFFFFF" d="M60.187,97.555c1.894-15.056,3.669-30.282,5.785-45.459
	c0.915-6.563,9.006-14.258,15.512-15.529c3.63-0.709,2.799,2.003,2.564,3.693c-1.193,8.561-2.549,17.099-3.893,25.638
	c-1.528,9.703-3.099,19.399-4.66,29.097c-0.747,4.632-9.924,9.087-14.201,6.894C59.376,100.904,60.39,99.154,60.187,97.555z"/>
<path fill-rule="evenodd" clip-rule="evenodd" fill="#FFFFFF" d="M88.479,93.754c1.308-11.563,2.538-22.116,3.67-32.68
	c0.298-2.78,1.791-4.721,3.808-6.396c9.541-7.922,19.146-15.767,28.605-23.785c3.135-2.659,5.364-2.346,7.788,0.886
	c7.439,9.914,14.972,19.761,22.574,29.55c2.118,2.725,2.466,5.631,2.096,8.883c-2.289,20.135-4.624,40.268-6.707,60.424
	c-0.464,4.498-2.376,5.521-6.581,5.021c-16.8-2.003-33.632-3.743-50.45-5.593c-1.173-0.13-2.336-0.35-3.506-0.504
	c-2.439-0.321-4.697-0.668-4.675-4.032c0.023-3.517,2.382-3.432,4.815-3.648c11.367-1.008,22.736-2.014,34.093-3.15
	c9.653-0.965,19.929-10.72,21.396-20.112c0.735-4.702-2.569-7.416-8.488-6.619c-14.23,1.916-28.462,3.849-42.649,6.056
	C89.588,98.78,87.339,97.907,88.479,93.754z M126.496,54.03c4.125,0.14,6.711-2.41,6.648-6.504
	c-0.055-3.761-2.402-6.163-6.375-6.139c-3.95,0.023-5.953,2.348-6.397,6.157C120.549,51.514,122.71,53.9,126.496,54.03z"/>
<path fill-rule="evenodd" clip-rule="evenodd" fill="#FFFFFF" d="M7.141,115.937C7.088,107,12.997,98.967,21.505,96.409
	c8.34-2.507,17.406,0.53,22.147,8.251c2.152,3.506,4.139,4.024,7.99,3.454c27.843-4.108,55.732-7.911,83.611-11.771
	c1.869-0.259,4.252-1.341,5.499,0.548c1.258,1.907-0.905,3.567-1.644,5.313c-3.814,9.013-10.59,12.447-20.375,13.045
	c-22.593,1.379-45.116,3.878-67.684,5.719c-3.486,0.286-4.992,1.97-6.571,4.779c-4.561,8.113-13.609,11.853-22.117,9.599
	C13.298,132.942,7.195,125.16,7.141,115.937z M26.41,102.91c-7.056,0.034-12.663,5.681-12.701,12.793
	c-0.039,7.288,5.994,13.33,13.096,13.118c6.891-0.209,12.458-6.157,12.372-13.223C39.089,108.459,33.471,102.874,26.41,102.91z"/>
<path fill-rule="evenodd" clip-rule="evenodd" fill="#FFFFFF" d="M67.902,124.634c5.346-1.441,6.259,1.225,5.121,5.286
	c-1.182,4.214-0.657,6.935,3.646,9.549c7.728,4.693,10.445,14.392,7.48,22.854c-2.913,8.323-10.778,13.887-19.384,13.716
	c-8.944-0.178-16.611-6.144-19.125-14.882c-2.454-8.525,1.019-17.73,8.836-22.478c2.771-1.683,5.603-2.999,5.411-6.81
	C59.588,125.929,62.503,123.685,67.902,124.634z M78.028,156.246c-0.106-6.974-5.912-12.743-12.868-12.786
	c-6.92-0.045-12.851,5.708-13.036,12.646c-0.196,7.3,5.576,13.24,12.897,13.274C72.379,169.415,78.14,163.597,78.028,156.246z"/>
</svg>
